<svg id="visual" viewBox="0 0 900 600" width="900" height="600" xmlns="http://www.w3.org/2000/svg" xmlns:xlink="http://www.w3.org/1999/xlink" version="1.1"><path d="M0 385L21.5 392.2C43 399.3 86 413.7 128.8 412C171.7 410.3 214.3 392.7 257.2 394.5C300 396.3 343 417.7 385.8 415.8C428.7 414 471.3 389 514.2 384.5C557 380 600 396 642.8 407.2C685.7 418.3 728.3 424.7 771.2 422.7C814 420.7 857 410.3 878.5 405.2L900 400L900 601L878.5 601C857 601 814 601 771.2 601C728.3 601 685.7 601 642.8 601C600 601 557 601 514.2 601C471.3 601 428.7 601 385.8 601C343 601 300 601 257.2 601C214.3 601 171.7 601 128.8 601C86 601 43 601 21.5 601L0 601Z" fill="#395dbe"></path><path d="M0 421L21.5 423.2C43 425.3 86 429.7 128.8 438.5C171.7 447.3 214.3 460.7 257.2 455.5C300 450.3 343 426.7 385.8 415.3C428.7 404 471.3 405 514.2 411.7C557 418.3 600 430.7 642.8 430.8C685.7 431 728.3 419 771.2 415.3C814 411.7 857 416.3 878.5 418.7L900 421L900 601L878.5 601C857 601 814 601 771.2 601C728.3 601 685.7 601 642.8 601C600 601 557 601 514.2 601C471.3 601 428.7 601 385.8 601C343 601 300 601 257.2 601C214.3 601 171.7 601 128.8 601C86 601 43 601 21.5 601L0 601Z" fill="#3354b1"></path><path d="M0 481L21.5 478.3C43 475.7 86 470.3 128.8 469.7C171.7 469 214.3 473 257.2 473.2C300 473.3 343 469.7 385.8 473C428.7 476.3 471.3 486.7 514.2 493.3C557 500 600 503 642.8 501C685.7 499 728.3 492 771.2 492C814 492 857 499 878.5 502.5L900 506L900 601L878.5 601C857 601 814 601 771.2 601C728.3 601 685.7 601 642.8 601C600 601 557 601 514.2 601C471.3 601 428.7 601 385.8 601C343 601 300 601 257.2 601C214.3 601 171.7 601 128.8 601C86 601 43 601 21.5 601L0 601Z" fill="#2c4ba4"></path><path d="M0 488L21.5 488.5C43 489 86 490 128.8 489.7C171.7 489.3 214.3 487.7 257.2 494.7C300 501.7 343 517.3 385.8 521.3C428.7 525.3 471.3 517.7 514.2 510.8C557 504 600 498 642.8 496C685.7 494 728.3 496 771.2 499.3C814 502.7 857 507.3 878.5 509.7L900 512L900 601L878.5 601C857 601 814 601 771.2 601C728.3 601 685.7 601 642.8 601C600 601 557 601 514.2 601C471.3 601 428.7 601 385.8 601C343 601 300 601 257.2 601C214.3 601 171.7 601 128.8 601C86 601 43 601 21.5 601L0 601Z" fill="#254297"></path><path d="M0 553L21.5 549.3C43 545.7 86 538.3 128.8 536.2C171.7 534 214.3 537 257.2 538.5C300 540 343 540 385.8 544.5C428.7 549 471.3 558 514.2 558C557 558 600 549 642.8 548.5C685.7 548 728.3 556 771.2 557.7C814 559.3 857 554.7 878.5 552.3L900 550L900 601L878.5 601C857 601 814 601 771.2 601C728.3 601 685.7 601 642.8 601C600 601 557 601 514.2 601C471.3 601 428.7 601 385.8 601C343 601 300 601 257.2 601C214.3 601 171.7 601 128.8 601C86 601 43 601 21.5 601L0 601Z" fill="#1e3a8a"></path></svg>